<svg width="50" height="50" viewBox="0 0 50 50" fill="none" xmlns="http://www.w3.org/2000/svg">
<path d="M0 8C0 3.58172 3.58172 0 8 0H42C46.4183 0 50 3.58172 50 8V42C50 46.4183 46.4183 50 42 50H8C3.58172 50 0 46.4183 0 42V8Z" fill="#80CBC4"/>
<path d="M16.3125 17V41H11.8125V17H16.3125ZM15.6719 31.9531H14.4375C14.4479 30.776 14.6042 29.6927 14.9062 28.7031C15.2083 27.7031 15.6406 26.8385 16.2031 26.1094C16.7656 25.3698 17.4375 24.7969 18.2188 24.3906C19.0104 23.9844 19.8854 23.7812 20.8438 23.7812C21.6771 23.7812 22.4323 23.901 23.1094 24.1406C23.7969 24.3698 24.3854 24.7448 24.875 25.2656C25.375 25.776 25.7604 26.4479 26.0312 27.2812C26.3021 28.1146 26.4375 29.125 26.4375 30.3125V41H21.9062V30.2812C21.9062 29.5312 21.7969 28.9427 21.5781 28.5156C21.3698 28.0781 21.0625 27.7708 20.6562 27.5938C20.2604 27.4062 19.7708 27.3125 19.1875 27.3125C18.5417 27.3125 17.9896 27.4323 17.5312 27.6719C17.0833 27.9115 16.724 28.2448 16.4531 28.6719C16.1823 29.0885 15.9844 29.5781 15.8594 30.1406C15.7344 30.7031 15.6719 31.3073 15.6719 31.9531Z" fill="white"/>
<path d="M34.3594 27.7812V41H29.8594V24.0938H34.0938L34.3594 27.7812ZM39.4531 23.9844L39.375 28.1562C39.1562 28.125 38.8906 28.099 38.5781 28.0781C38.276 28.0469 38 28.0312 37.75 28.0312C37.1146 28.0312 36.5625 28.1146 36.0938 28.2812C35.6354 28.4375 35.25 28.6719 34.9375 28.9844C34.6354 29.2969 34.4062 29.6771 34.25 30.125C34.1042 30.5729 34.0208 31.0833 34 31.6562L33.0938 31.375C33.0938 30.2812 33.2031 29.276 33.4219 28.3594C33.6406 27.4323 33.9583 26.625 34.375 25.9375C34.8021 25.25 35.3229 24.7188 35.9375 24.3438C36.5521 23.9688 37.2552 23.7812 38.0469 23.7812C38.2969 23.7812 38.5521 23.8021 38.8125 23.8438C39.0729 23.875 39.2865 23.9219 39.4531 23.9844Z" fill="white"/>
<path d="M39 11C39 13.7614 36.7614 16 34 16C31.2386 16 29 13.7614 29 11C29 8.23858 31.2386 6 34 6C36.7614 6 39 8.23858 39 11Z" fill="#FFB433"/>
</svg>
